<svg width="74" height="74" viewBox="0 0 74 74" fill="none" xmlns="http://www.w3.org/2000/svg">
<rect x="5" y="1" width="64" height="64" rx="8" fill="#6F5D00"/>
<g filter="url(#filter0_dd_24_446)">
<rect x="5" y="1" width="64" height="64" rx="8" fill="white" fill-opacity="0.01" shape-rendering="crispEdges"/>
</g>
<path d="M26.3307 43.6654C25.5974 43.6654 24.9696 43.4043 24.4474 42.882C23.9252 42.3598 23.6641 41.732 23.6641 40.9987V24.9987C23.6641 24.2654 23.9252 23.6376 24.4474 23.1154C24.9696 22.5931 25.5974 22.332 26.3307 22.332H47.6641C48.3974 22.332 49.0252 22.5931 49.5474 23.1154C50.0696 23.6376 50.3307 24.2654 50.3307 24.9987V40.9987C50.3307 41.732 50.0696 42.3598 49.5474 42.882C49.0252 43.4043 48.3974 43.6654 47.6641 43.6654H26.3307ZM36.9974 34.332L47.6641 27.6654V24.9987L36.9974 31.6654L26.3307 24.9987V27.6654L36.9974 34.332Z" fill="#F9D73E"/>
<defs>
<filter id="filter0_dd_24_446" x="0" y="0" width="74" height="74" filterUnits="userSpaceOnUse" color-interpolation-filters="sRGB">
<feFlood flood-opacity="0" result="BackgroundImageFix"/>
<feColorMatrix in="SourceAlpha" type="matrix" values="0 0 0 0 0 0 0 0 0 0 0 0 0 0 0 0 0 0 127 0" result="hardAlpha"/>
<feMorphology radius="2" operator="erode" in="SourceAlpha" result="effect1_dropShadow_24_446"/>
<feOffset dy="2"/>
<feGaussianBlur stdDeviation="2"/>
<feComposite in2="hardAlpha" operator="out"/>
<feColorMatrix type="matrix" values="0 0 0 0 0 0 0 0 0 0 0 0 0 0 0 0 0 0 0.1 0"/>
<feBlend mode="normal" in2="BackgroundImageFix" result="effect1_dropShadow_24_446"/>
<feColorMatrix in="SourceAlpha" type="matrix" values="0 0 0 0 0 0 0 0 0 0 0 0 0 0 0 0 0 0 127 0" result="hardAlpha"/>
<feMorphology radius="1" operator="erode" in="SourceAlpha" result="effect2_dropShadow_24_446"/>
<feOffset dy="4"/>
<feGaussianBlur stdDeviation="3"/>
<feComposite in2="hardAlpha" operator="out"/>
<feColorMatrix type="matrix" values="0 0 0 0 0 0 0 0 0 0 0 0 0 0 0 0 0 0 0.1 0"/>
<feBlend mode="normal" in2="effect1_dropShadow_24_446" result="effect2_dropShadow_24_446"/>
<feBlend mode="normal" in="SourceGraphic" in2="effect2_dropShadow_24_446" result="shape"/>
</filter>
</defs>
</svg>
