<svg width="19" height="17" viewBox="0 0 19 17" fill="none" xmlns="http://www.w3.org/2000/svg">
<path d="M9.16667 13.6289C10.2083 13.6289 11.0938 13.2643 11.8229 12.5352C12.5521 11.806 12.9167 10.9206 12.9167 9.87891C12.9167 8.83724 12.5521 7.95182 11.8229 7.22266C11.0938 6.49349 10.2083 6.12891 9.16667 6.12891C8.125 6.12891 7.23958 6.49349 6.51042 7.22266C5.78125 7.95182 5.41667 8.83724 5.41667 9.87891C5.41667 10.9206 5.78125 11.806 6.51042 12.5352C7.23958 13.2643 8.125 13.6289 9.16667 13.6289ZM9.16667 12.1289C8.54167 12.1289 8.01042 11.9102 7.57292 11.4727C7.13542 11.0352 6.91667 10.5039 6.91667 9.87891C6.91667 9.25391 7.13542 8.72266 7.57292 8.28516C8.01042 7.84766 8.54167 7.62891 9.16667 7.62891C9.79167 7.62891 10.3229 7.84766 10.7604 8.28516C11.1979 8.72266 11.4167 9.25391 11.4167 9.87891C11.4167 10.5039 11.1979 11.0352 10.7604 11.4727C10.3229 11.9102 9.79167 12.1289 9.16667 12.1289ZM9.16667 16.1289C7.13889 16.1289 5.29167 15.5629 3.625 14.431C1.95833 13.299 0.75 11.7817 0 9.87891C0.75 7.97613 1.95833 6.45877 3.625 5.32682C5.29167 4.19488 7.13889 3.62891 9.16667 3.62891C11.1944 3.62891 13.0417 4.19488 14.7083 5.32682C16.375 6.45877 17.5833 7.97613 18.3333 9.87891C17.5833 11.7817 16.375 13.299 14.7083 14.431C13.0417 15.5629 11.1944 16.1289 9.16667 16.1289ZM9.16667 14.4622C10.7361 14.4622 12.1771 14.049 13.4896 13.2227C14.8021 12.3963 15.8056 11.2817 16.5 9.87891C15.8056 8.47613 14.8021 7.36155 13.4896 6.53516C12.1771 5.70877 10.7361 5.29557 9.16667 5.29557C7.59722 5.29557 6.15625 5.70877 4.84375 6.53516C3.53125 7.36155 2.52778 8.47613 1.83333 9.87891C2.52778 11.2817 3.53125 12.3963 4.84375 13.2227C6.15625 14.049 7.59722 14.4622 9.16667 14.4622Z" fill="#7C7766"/>
</svg>
